<svg width="24" height="24" viewBox="0 0 24 24" fill="none" xmlns="http://www.w3.org/2000/svg">
<rect width="24" height="23.937" rx="11.9685" fill="#FF7900"/>
<path d="M1.50668 12.3251V12.2537C1.50668 12.0114 1.54189 11.7867 1.6123 11.5796C1.68272 11.3704 1.7842 11.1892 1.91675 11.0359C2.05136 10.8806 2.21497 10.7605 2.40758 10.6756C2.60226 10.5886 2.82179 10.5451 3.06617 10.5451C3.31262 10.5451 3.53215 10.5886 3.72475 10.6756C3.91943 10.7605 4.08408 10.8806 4.2187 11.0359C4.35331 11.1892 4.45583 11.3704 4.52624 11.5796C4.59666 11.7867 4.63187 12.0114 4.63187 12.2537V12.3251C4.63187 12.5675 4.59666 12.7922 4.52624 12.9993C4.45583 13.2064 4.35331 13.3876 4.2187 13.5429C4.08408 13.6962 3.92047 13.8163 3.72786 13.9033C3.53526 13.9882 3.31676 14.0306 3.07238 14.0306C2.82593 14.0306 2.60536 13.9882 2.41069 13.9033C2.21808 13.8163 2.05447 13.6962 1.91985 13.5429C1.78523 13.3876 1.68272 13.2064 1.6123 12.9993C1.54189 12.7922 1.50668 12.5675 1.50668 12.3251ZM2.25536 12.2537V12.3251C2.25536 12.4763 2.27089 12.6192 2.30196 12.7538C2.33302 12.8885 2.38169 13.0065 2.44796 13.108C2.51424 13.2095 2.59915 13.2892 2.7027 13.3472C2.80625 13.4052 2.92948 13.4342 3.07238 13.4342C3.21114 13.4342 3.33126 13.4052 3.43274 13.3472C3.53629 13.2892 3.6212 13.2095 3.68748 13.108C3.75375 13.0065 3.80242 12.8885 3.83348 12.7538C3.86662 12.6192 3.88319 12.4763 3.88319 12.3251V12.2537C3.88319 12.1046 3.86662 11.9637 3.83348 11.8312C3.80242 11.6966 3.75271 11.5775 3.68437 11.474C3.6181 11.3704 3.53318 11.2896 3.42963 11.2316C3.32815 11.1716 3.207 11.1415 3.06617 11.1415C2.92534 11.1415 2.80315 11.1716 2.69959 11.2316C2.59811 11.2896 2.51424 11.3704 2.44796 11.474C2.38169 11.5775 2.33302 11.6966 2.30196 11.8312C2.27089 11.9637 2.25536 12.1046 2.25536 12.2537ZM6.01117 11.2472V13.9685H5.26249V10.6072H5.977L6.01117 11.2472ZM7.03944 10.5855L7.03323 11.2813C6.98766 11.2731 6.93796 11.2668 6.88411 11.2627C6.83234 11.2586 6.78056 11.2565 6.72878 11.2565C6.60038 11.2565 6.48751 11.2751 6.39017 11.3124C6.29283 11.3476 6.21103 11.3994 6.14475 11.4677C6.08055 11.534 6.03085 11.6148 5.99564 11.71C5.96043 11.8053 5.93972 11.912 5.93351 12.03L5.76265 12.0424C5.76265 11.8312 5.78336 11.6355 5.82478 11.4553C5.8662 11.2751 5.92833 11.1167 6.01117 10.98C6.09608 10.8433 6.20171 10.7367 6.32804 10.66C6.45644 10.5834 6.60452 10.5451 6.77228 10.5451C6.81784 10.5451 6.86651 10.5492 6.91828 10.5575C6.97213 10.5658 7.01252 10.5751 7.03944 10.5855ZM9.29168 13.2944V11.6914C9.29168 11.5713 9.26994 11.4677 9.22645 11.3808C9.18295 11.2938 9.11668 11.2265 9.02763 11.1788C8.94064 11.1312 8.83088 11.1074 8.69833 11.1074C8.57614 11.1074 8.47052 11.1281 8.38147 11.1695C8.29241 11.2109 8.22303 11.2668 8.17333 11.3373C8.12362 11.4077 8.09877 11.4874 8.09877 11.5765H7.3532C7.3532 11.4439 7.3853 11.3155 7.4495 11.1913C7.5137 11.067 7.6069 10.9562 7.72909 10.8589C7.85128 10.7615 7.99729 10.6849 8.16711 10.629C8.33694 10.5731 8.52747 10.5451 8.73872 10.5451C8.99138 10.5451 9.21506 10.5875 9.40973 10.6725C9.60648 10.7574 9.76077 10.8858 9.87261 11.0577C9.98651 11.2275 10.0435 11.4408 10.0435 11.6976V13.1919C10.0435 13.3451 10.0538 13.4828 10.0745 13.605C10.0973 13.7252 10.1294 13.8297 10.1708 13.9188V13.9685H9.40352C9.36831 13.8877 9.34035 13.7852 9.31964 13.661C9.301 13.5346 9.29168 13.4124 9.29168 13.2944ZM9.40041 11.9244L9.40663 12.3873H8.86919C8.73043 12.3873 8.60824 12.4007 8.50262 12.4277C8.397 12.4525 8.30898 12.4898 8.23856 12.5395C8.16815 12.5892 8.11534 12.6493 8.08013 12.7197C8.04492 12.7901 8.02732 12.8698 8.02732 12.9589C8.02732 13.0479 8.04803 13.1297 8.08945 13.2043C8.13087 13.2768 8.19093 13.3337 8.26963 13.3752C8.3504 13.4166 8.44774 13.4373 8.56165 13.4373C8.7149 13.4373 8.84848 13.4062 8.96239 13.3441C9.07837 13.2799 9.16949 13.2022 9.23577 13.1111C9.30204 13.0179 9.33725 12.9299 9.34139 12.847L9.5837 13.1794C9.55885 13.2644 9.51639 13.3555 9.45633 13.4528C9.39627 13.5502 9.31757 13.6434 9.22023 13.7324C9.12497 13.8194 9.01002 13.8908 8.87541 13.9468C8.74286 14.0027 8.5896 14.0306 8.41564 14.0306C8.19611 14.0306 8.0004 13.9871 7.8285 13.9002C7.65661 13.8111 7.52199 13.692 7.42465 13.5429C7.32731 13.3917 7.27864 13.2209 7.27864 13.0303C7.27864 12.8522 7.31178 12.6948 7.37805 12.5581C7.4464 12.4194 7.54581 12.3034 7.67628 12.2102C7.80883 12.117 7.97037 12.0466 8.1609 11.999C8.35144 11.9493 8.56889 11.9244 8.81328 11.9244H9.40041ZM11.5688 11.3248V13.9685H10.8201V10.6072H11.5253L11.5688 11.3248ZM11.4352 12.1636L11.1929 12.1605C11.195 11.9223 11.2281 11.7038 11.2923 11.505C11.3586 11.3062 11.4497 11.1353 11.5657 10.9924C11.6837 10.8495 11.8246 10.7398 11.9882 10.6631C12.1518 10.5844 12.334 10.5451 12.5349 10.5451C12.6965 10.5451 12.8425 10.5679 12.9729 10.6134C13.1055 10.6569 13.2184 10.7284 13.3116 10.8278C13.4068 10.9272 13.4793 11.0566 13.529 11.2161C13.5787 11.3735 13.6036 11.5671 13.6036 11.797V13.9685H12.8518V11.7939C12.8518 11.6324 12.828 11.505 12.7803 11.4118C12.7348 11.3166 12.6675 11.2492 12.5784 11.2099C12.4914 11.1685 12.3827 11.1478 12.2522 11.1478C12.1238 11.1478 12.0089 11.1747 11.9074 11.2285C11.8059 11.2824 11.72 11.3559 11.6496 11.4491C11.5812 11.5423 11.5284 11.65 11.4911 11.7722C11.4538 11.8944 11.4352 12.0248 11.4352 12.1636ZM16.5206 10.6072H17.2009V13.8753C17.2009 14.1777 17.1367 14.4345 17.0083 14.6457C16.8799 14.857 16.7008 15.0175 16.4709 15.1272C16.241 15.2391 15.9749 15.295 15.6725 15.295C15.5441 15.295 15.4012 15.2764 15.2438 15.2391C15.0885 15.2018 14.9373 15.1417 14.7903 15.0589C14.6453 14.9781 14.5241 14.8715 14.4268 14.7389L14.7778 14.2978C14.898 14.4407 15.0305 14.5453 15.1755 14.6116C15.3205 14.6778 15.4727 14.711 15.6321 14.711C15.804 14.711 15.95 14.6789 16.0702 14.6147C16.1924 14.5525 16.2866 14.4604 16.3529 14.3382C16.4191 14.216 16.4523 14.0669 16.4523 13.8908V11.3683L16.5206 10.6072ZM14.2373 12.3251V12.2599C14.2373 12.0052 14.2684 11.7732 14.3305 11.564C14.3926 11.3528 14.4817 11.1716 14.5977 11.0204C14.7136 10.8671 14.8545 10.7501 15.0202 10.6694C15.1858 10.5865 15.3733 10.5451 15.5824 10.5451C15.7999 10.5451 15.9853 10.5844 16.1385 10.6631C16.2938 10.7418 16.4233 10.8547 16.5268 11.0018C16.6304 11.1467 16.7111 11.3207 16.7691 11.5237C16.8292 11.7245 16.8737 11.9482 16.9027 12.1947V12.4028C16.8758 12.643 16.8302 12.8626 16.766 13.0614C16.7018 13.2602 16.6169 13.4321 16.5113 13.5771C16.4057 13.7221 16.2752 13.8339 16.1199 13.9126C15.9666 13.9913 15.7854 14.0306 15.5762 14.0306C15.3712 14.0306 15.1858 13.9882 15.0202 13.9033C14.8565 13.8184 14.7157 13.6993 14.5977 13.546C14.4817 13.3928 14.3926 13.2126 14.3305 13.0055C14.2684 12.7963 14.2373 12.5695 14.2373 12.3251ZM14.986 12.2599V12.3251C14.986 12.4784 15.0005 12.6213 15.0295 12.7538C15.0605 12.8864 15.1071 13.0034 15.1693 13.1049C15.2335 13.2043 15.3142 13.283 15.4116 13.341C15.511 13.3969 15.628 13.4249 15.7626 13.4249C15.9387 13.4249 16.0826 13.3876 16.1944 13.313C16.3083 13.2385 16.3953 13.138 16.4554 13.0117C16.5175 12.8833 16.561 12.7404 16.5859 12.583V12.0207C16.5734 11.8985 16.5475 11.7846 16.5082 11.679C16.4709 11.5734 16.4202 11.4812 16.356 11.4025C16.2918 11.3217 16.211 11.2596 16.1137 11.2161C16.0163 11.1705 15.9014 11.1478 15.7688 11.1478C15.6342 11.1478 15.5172 11.1768 15.4178 11.2347C15.3184 11.2927 15.2366 11.3725 15.1724 11.474C15.1102 11.5754 15.0636 11.6935 15.0326 11.8281C15.0015 11.9627 14.986 12.1066 14.986 12.2599ZM19.4594 14.0306C19.2109 14.0306 18.9862 13.9903 18.7853 13.9095C18.5865 13.8266 18.4166 13.7117 18.2758 13.5647C18.1371 13.4176 18.0304 13.2447 17.9558 13.0459C17.8813 12.847 17.844 12.6327 17.844 12.4028V12.2785C17.844 12.0155 17.8823 11.7774 17.9589 11.564C18.0356 11.3507 18.1422 11.1685 18.2789 11.0173C18.4156 10.864 18.5771 10.747 18.7635 10.6662C18.9499 10.5855 19.1519 10.5451 19.3693 10.5451C19.6096 10.5451 19.8198 10.5855 19.9999 10.6662C20.1801 10.747 20.3292 10.8609 20.4473 11.008C20.5674 11.1529 20.6565 11.3259 20.7145 11.5268C20.7745 11.7277 20.8045 11.9493 20.8045 12.1916V12.5115H18.2075V11.9741H20.0652V11.9151C20.061 11.7805 20.0341 11.6541 19.9844 11.5361C19.9368 11.418 19.8633 11.3228 19.7638 11.2503C19.6644 11.1778 19.5319 11.1415 19.3662 11.1415C19.2419 11.1415 19.1311 11.1685 19.0338 11.2223C18.9385 11.2741 18.8588 11.3497 18.7946 11.4491C18.7304 11.5485 18.6807 11.6686 18.6455 11.8095C18.6124 11.9482 18.5958 12.1046 18.5958 12.2785V12.4028C18.5958 12.5499 18.6155 12.6865 18.6548 12.8129C18.6962 12.9371 18.7563 13.0459 18.835 13.1391C18.9137 13.2323 19.009 13.3058 19.1208 13.3596C19.2326 13.4114 19.36 13.4373 19.5029 13.4373C19.6831 13.4373 19.8436 13.401 19.9844 13.3286C20.1252 13.2561 20.2474 13.1536 20.351 13.021L20.7455 13.4031C20.673 13.5087 20.5788 13.6102 20.4628 13.7076C20.3468 13.8028 20.205 13.8805 20.0372 13.9405C19.8715 14.0006 19.6789 14.0306 19.4594 14.0306Z" fill="white"/>
<path d="M21.4648 9.90164V10.9764H21.281V9.90164H21.4648ZM21.8022 9.90164V10.0493H20.9466V9.90164H21.8022ZM22.0192 9.90164H22.1846L22.4953 10.7306L22.8054 9.90164H22.9707L22.5603 10.9764H22.4289L22.0192 9.90164ZM21.9439 9.90164H22.1011L22.1285 10.6192V10.9764H21.9439V9.90164ZM22.8888 9.90164H23.0468V10.9764H22.8615V10.6192L22.8888 9.90164Z" fill="white"/>
</svg>
